# AST/ASF file generated using VICON BodyLanguage
# -----------------------------------------------
:version 1.10
:name VICON
:units
  mass 1.0
  length 0.45
  angle deg
:documentation
   .ast/.asf automatically generated from VICON data using
   VICON BodyBuilder and BodyLanguage model FoxedUp or BRILLIANT.MOD
:root
   order TX TY TZ RX RY RZ
   axis XYZ
   position 0 0 0  
   orientation 0 0 0 
:bonedata
  begin
     id 1 
     name lhipjoint
     direction 0.62366 -0.717238 0.310833 
     length 2.53602 
     axis 0 0 0  XYZ
  end
  begin
     id 2 
     name lfemur
     direction 0.34202 -0.939693 0  
     length 7.40817  
     axis 0 0 20  XYZ
    dof rx ry rz
    limits (-160.0 20.0)
           (-70.0 70.0)
           (-60.0 70.0)
  end
  begin
     id 3 
     name ltibia
     direction 0.34202 -0.939693 0   
     length 7.7045   
     axis 0 0 20   XYZ
    dof rx
    limits (-10.0 170.0)
  end
  begin
     id 4 
     name lfoot
     direction 0.0673888 -0.185149 0.980397   
     length 2.09456   
     axis -90 7.62852e-016 20   XYZ
    dof rx rz
    limits (-45.0 90.0)
           (-70.0 20.0)
  end
  begin
     id 5 
     name ltoes
     direction 1.53575e-011 -4.21994e-011 1   
     length 1.05543   
     axis -90 7.62852e-016 20   XYZ
    dof rx
    limits (-90.0 20.0)
  end
  begin
     id 6 
     name rhipjoint
     direction -0.489018 -0.800347 0.346851   
     length 2.27268  
     axis 0 0 0  XYZ 
  end
  begin
     id 7 
     name rfemur
     direction -0.34202 -0.939693 0   
     length 7.55487   
     axis 0 0 -20   XYZ
    dof rx ry rz
    limits (-160.0 20.0)
           (-70.0 70.0)
           (-70.0 60.0)
  end
  begin
     id 8 
     name rtibia
     direction -0.34202 -0.939693 0   
     length 7.78969   
     axis 0 0 -20   XYZ
    dof rx
    limits (-10.0 170.0)
 end
 begin
     id 9 
     name rfoot
     direction -0.0859318 -0.236096 0.967923   
     length 2.19143  
     axis -90 -7.62852e-016 -20   XYZ
    dof rx rz
    limits (-45.0 90.0)
           (-20.0 70.0)
  end
  begin
     id 10 
     name rtoes
     direction -1.53538e-011 -4.21989e-011 1   
     length 1.09845   
     axis -90 -7.62852e-016 -20   XYZ
    dof rx
    limits (-90.0 20.0)
  end
  begin
     id 11 
     name lowerback
     direction -0.00762546 0.998978 -0.0445553   
     length 1.98161   
     axis 0 0 0   XYZ
    dof rx ry rz
    limits (-20.0 45.0)
           (-30.0 30.0)
           (-30.0 30.0)
  end
  begin
     id 12 
     name upperback
     direction 0.0422361 0.998867 -0.0219156   
     length 1.97558   
     axis 0 0 0   XYZ
    dof rx ry rz
    limits (-20.0 45.0)
           (-30.0 30.0)
           (-30.0 30.0)
  end
  begin
     id 13 
     name thorax
     direction 0.0442465 0.999021 7.47603e-005   
     length 1.97799   
     axis 0 0 0   XYZ
    dof rx ry rz
    limits (-20.0 45.0)
           (-30.0 30.0)
           (-30.0 30.0)
  end
  begin
     id 14 
     name lowerneck
     direction 0.00312169 0.984641 0.174564   
     length 1.78995   
     axis 0 0 0   XYZ
    dof rx ry rz
    limits (-20.0 45.0)
           (-30.0 30.0)
           (-30.0 30.0)
  end
  begin
     id 15 
     name upperneck
     direction -0.0383028 0.985255 -0.166749   
     length 1.83053   
     axis 0 0 0   XYZ
    dof rx ry rz
    limits (-20.0 45.0)
           (-30.0 30.0)
           (-30.0 30.0)
  end
  begin
     id 16
     name head
     direction -0.0129546 0.997059 -0.0755386  
     length 1.84088  
     axis 0 0 0   XYZ
    dof rx ry rz
    limits (-20.0 45.0)
           (-30.0 30.0)
           (-30.0 30.0)
  end
  begin
     id 17 
     name lclavicle
     direction 0.912857 0.370519 -0.171488  
     length 3.51279  
     axis 0 0 0   XYZ
    dof ry rz
    limits (-20.0 10.0)
           (0.0 20.0)
  end
  begin
     id 18 
     name lhumerus
     direction 1 -4.48962e-011 3.64361e-027   
     length 4.95663   
     axis 180 -30 -90   XYZ
    dof rx ry rz
    limits (-60.0 90.0)
           (-90.0 90.0)
           (-90.0 90.0)
  end
  begin
     id 19
     name lradius
     direction 1 -4.48974e-011 5.97202e-027   
     length 3.38177   
     axis 180 -30 -90   XYZ
    dof rx
    limits (-10.0 170.0)
  end
  begin
     id 20
     name lwrist
     direction 1 -4.4896e-011 9.83288e-027   
     length 1.69088   
     axis -9.31221e-015 90 90   XYZ
    dof ry
    limits (-180.0 0.0)
 end
  begin
     id 21 
     name lhand
     direction 1 -4.4902e-011 1.96551e-026   
     length 0.662909   
     axis -1.25475e-014 90 90   XYZ
    dof rx rz
    limits (-90.0 90.0)
           (-45.0 45.0)
  end
  begin
     id 22 
     name lfingers
     direction 1 -4.48971e-011 3.93277e-026   
     length 0.534454   
     axis -2.50945e-014 90 90   XYZ
    dof rx
    limits (0.0 90.0)
  end
  begin
     id 23
     name lthumb
     direction 0.707107 -6.34933e-011 0.707107   
     length 0.767373   
     axis -90 45 -4.80359e-014   XYZ
    dof rx rz
    limits (-45.0 45.0)
           (-45.0 45.0)
  end
  begin
     id 24 
     name rclavicle
     direction -0.900919 0.395364 -0.178976   
     length 3.40627  
     axis 0 0 0   XYZ 
    dof ry rz
    limits (-10.0 20.0)
           (-20.0 0.0)
  end
  begin
     id 25 
     name rhumerus
     direction -1 -4.48969e-011 1.03875e-027  
     length 5.08365   
     axis 180 30 90   XYZ
    dof rx ry rz
    limits (-90.0 60.0)
           (-90.0 90.0)
           (-90.0 90.0)
  end
  begin
     id 26 
     name rradius
     direction -1 -4.48951e-011 5.02733e-027   
     length 3.35984   
     axis 180 30 90   XYZ
    dof rx
    limits (-10.0 170.0)
  end
  begin
     id 27 
     name rwrist
     direction -1 -4.49011e-011 9.82828e-027   
     length 1.67992   
     axis -9.31221e-015 -90 -90   XYZ
    dof ry
    limits (-180.0 0.0)
  end
  begin
     id 28
     name rhand
     direction -1 -4.48894e-011 1.96774e-026   
     length 0.820764   
     axis -1.25475e-014 -90 -90   XYZ
    dof rx rz
    limits (-90.0 90.0)
           (-45.0 45.0)
  end
  begin
     id 29
     name rfingers
     direction -1 -4.49095e-011 3.92833e-026   
     length 0.661721   
     axis -2.50945e-014 -90 -90   XYZ
    dof rx
    limits (0.0 90.0)
  end
  begin
     id 30
     name rthumb
     direction -0.707107 -6.34881e-011 0.707107   
     length 0.950103   
     axis -90 -45 4.80359e-014   XYZ
    dof rx rz
    limits (-45.0 45.0)
           (-45.0 45.0)
  end
:hierarchy
  begin
    root lhipjoint rhipjoint lowerback
    lhipjoint lfemur
    lfemur ltibia
    ltibia lfoot
    lfoot ltoes
    rhipjoint rfemur
    rfemur rtibia
    rtibia rfoot
    rfoot rtoes
    lowerback upperback
    upperback thorax
    thorax lowerneck lclavicle rclavicle
    lowerneck upperneck
    upperneck head
    lclavicle lhumerus
    lhumerus lradius
    lradius lwrist
    lwrist lhand lthumb
    lhand lfingers
    rclavicle rhumerus
    rhumerus rradius
    rradius rwrist
    rwrist rhand rthumb
    rhand rfingers
  end

#!OML:ASF I:\golf\golf\golf 2\Subject 1\2002-09-07\Subject1.ASF
:FULLY-SPECIFIED
:DEGREES
92
root -7.99608 17.794 0.190487 -124.566 86.0812 -138.433
lowerback 4.01152 1.78201 -1.98543
upperback 4.67092 2.43634 4.50031
thorax 2.2988 1.16177 5.73575
lowerneck -15.2302 -2.24413 0.976408
upperneck 39.0178 0.157669 -4.83172
head 16.629 0.112094 -2.1229
rclavicle 1.90833e-014 2.70347e-014
rhumerus -4.34827 -2.56092 -100.4
rradius 25.4002
rwrist -43.3229
rhand -12.6256 -9.54311
rfingers 7.12502
rthumb 13.4541 -39.0886
lclavicle 1.90833e-014 2.70347e-014
lhumerus -3.92173 -43.268 109.488
lradius 20.1917
lwrist 30.6224
lhand 166.183 63.4548
lfingers 7.12502
lthumb -167.694 33.8369
rfemur -26.108 -0.984386 11.0939
rtibia 28.2152
rfoot -11.7543 -9.49246
rtoes 22.0644
lfemur -28.1282 6.60631 -9.16889
ltibia 28.1389
lfoot -10.2507 -3.55477
ltoes -21.9478
93
root -7.99477 17.7955 0.192171 -123.798 86.1509 -137.658
lowerback 4.02469 1.7755 -2.01975
upperback 4.67134 2.42668 4.49881
thorax 2.29184 1.15598 5.75357
lowerneck -15.204 -2.21142 0.954915
upperneck 39.0074 0.242515 -4.89746
head 16.6219 0.134958 -2.13246
rclavicle 3.33958e-014 1.51076e-014
rhumerus -4.67228 -2.15243 -100.452
rradius 25.8194
rwrist -43.9709
rhand -12.7597 -9.23485
rfingers 7.12502
rthumb 13.3249 -38.7888
lclavicle 3.33958e-014 1.51076e-014
lhumerus -3.79813 -44.2213 109.176
lradius 20.2068
lwrist 31.3221
lhand 165.822 63.5856
lfingers 7.12502
lthumb -168.042 33.9472
rfemur -26.17 -0.856198 11.0519
rtibia 28.3074
rfoot -11.8111 -9.47622
rtoes 22.4528
lfemur -28.0521 6.69593 -9.17398
ltibia 28.0825
lfoot -10.3307 -3.55041
ltoes -21.7764
94
root -7.99243 17.7972 0.194905 -122.503 86.2437 -136.316
lowerback 4.09335 1.78113 -2.05754
upperback 4.67412 2.43354 4.49894
thorax 2.25421 1.15921 5.77258
lowerneck -15.2025 -2.18898 0.880509
upperneck 39.0289 0.317878 -4.9244
head 16.6382 0.15191 -2.11824
rclavicle -9.54166e-015 -3.57812e-014
rhumerus -4.96134 -2.19621 -100.465
rradius 26.2123
rwrist -44.6169
rhand -12.4977 -9.11723
rfingers 7.12502
rthumb 13.5774 -38.6545
lclavicle -9.54166e-015 -3.57812e-014
lhumerus -3.76194 -45.5432 108.907
lradius 20.3396
lwrist 31.612
lhand 165.679 63.7463
lfingers 7.12502
lthumb -168.181 34.0998
rfemur -26.1959 -0.595046 10.9967
rtibia 28.4148
rfoot -10.3742 -10.6163
rtoes -2.50038
lfemur -27.9183 6.81362 -9.17329
ltibia 28.0258
lfoot -10.5004 -3.44765
ltoes -22.5919
95
root -7.98903 17.7965 0.198993 -120.604 86.442 -134.4
lowerback 4.10159 1.81076 -2.2636
upperback 4.68987 2.46796 4.52199
thorax 2.25397 1.16994 5.91384
lowerneck -15.2288 -2.16735 0.729644
upperneck 39.049 0.407761 -4.92984
head 16.6624 0.165563 -2.07856
rclavicle 2.06736e-014 4.6118e-014
rhumerus -5.23437 -2.45264 -100.41
rradius 26.6691
rwrist -45.4222
rhand -12.2323 -9.21892
rfingers 7.12502
rthumb 13.8331 -38.7389
lclavicle 2.06736e-014 4.6118e-014
lhumerus -3.67651 -46.8492 108.701
lradius 20.4481
lwrist 31.0272
lhand 165.517 63.4591
lfingers 7.12502
lthumb -168.336 33.8038
rfemur -26.2951 -0.380179 10.8938
rtibia 28.5346
rfoot -10.1657 -10.7437
rtoes -8.64243
lfemur -27.8132 7.03028 -9.24774
ltibia 27.9869
lfoot -10.5145 -3.52419
ltoes -22.2934
96
root -7.9867 17.795 0.203714 -117.197 86.6453 -131.028
lowerback 4.02357 1.84958 -2.51777
upperback 4.71132 2.51392 4.58578
thorax 2.30314 1.18328 6.12912
lowerneck -15.2059 -2.14016 0.639289
upperneck 38.9954 0.511466 -5.0253
head 16.6351 0.180097 -2.0846
rclavicle 2.94201e-014 3.73715e-014
rhumerus -5.52932 -2.30229 -100.31
rradius 27.163
rwrist -46.2054
rhand -12.2719 -9.27423
rfingers 7.12502
rthumb 13.7949 -38.7968
lclavicle 2.94201e-014 3.73715e-014
lhumerus -3.45717 -47.5118 108.446
lradius 20.479
lwrist 29.5486
lhand 165.771 63.1982
lfingers 7.12502
lthumb -168.091 33.5569
rfemur -26.4985 -0.264668 10.8632
rtibia 28.6731
rfoot -10.232 -10.5453
rtoes -8.92911
lfemur -27.7674 7.31282 -9.29217
ltibia 27.9757
lfoot -10.4763 -3.63399
ltoes -21.5007
